<svg width="905" height="183" viewBox="0 0 905 183" fill="none" xmlns="http://www.w3.org/2000/svg">
<path d="M295.17 57.1992H313.943L341.586 127.958H325.289L320.235 114.446H288.053L282.999 127.958H267.527L295.17 57.1992ZM315.49 101.965L308.785 84.0173C307.96 81.8169 306.482 77.1752 304.35 70.0925H303.834C301.703 77.1752 300.224 81.8169 299.399 84.0173L292.694 101.965H315.49Z" fill="#A54C18" />
<path d="M373.55 57.1992H388.094L415.324 95.6729C416.15 96.8419 417.525 99.1455 419.45 102.584L419.966 102.274L419.657 96.2918V57.1992H434.2V127.958H419.657L392.323 89.1746C391.016 87.318 389.675 85.0488 388.3 82.367L387.784 82.6764C387.991 85.6333 388.094 87.6962 388.094 88.8652V127.958H373.55V57.1992Z" fill="#A54C18" />
<path d="M470.784 129.196C462.051 129.196 455.519 126.892 451.186 122.285C446.923 117.678 444.791 110.526 444.791 100.83C444.791 91.1344 446.923 83.9829 451.186 79.3757C455.519 74.7685 462.051 72.4649 470.784 72.4649C478.83 72.4649 484.847 74.8029 488.835 79.4789C492.823 84.0861 494.817 91.2032 494.817 100.83V104.131H459.129C459.266 108.944 460.229 112.52 462.017 114.858C463.805 117.127 466.796 118.262 470.991 118.262C473.947 118.262 476.32 117.437 478.108 115.786C479.964 114.136 480.893 111.798 480.893 108.773H494.817C494.817 115.58 492.617 120.703 488.216 124.141C483.815 127.511 478.005 129.196 470.784 129.196ZM480.171 94.7446C480.171 87.2492 477.042 83.5016 470.784 83.5016C467.209 83.5016 464.492 84.4299 462.636 86.2865C460.848 88.1432 459.748 90.9625 459.335 94.7446H480.171Z" fill="#A54C18" />
<path d="M498.806 73.7026H513.349L519.229 95.9823C519.847 98.3891 520.913 103.581 522.426 111.557H522.839C524.352 104.2 525.452 99.0423 526.139 96.0855L531.709 73.7026H546.253L552.132 96.1886C552.958 99.3518 554.092 104.475 555.536 111.557H555.949C557.255 104.956 558.356 99.8331 559.25 96.1886L564.819 73.7026H578.228L562.138 127.958H547.491L541.302 102.068C540.546 98.7673 539.72 94.7789 538.826 90.103H538.311C537.692 94.7102 536.97 98.6641 536.145 101.965L529.646 127.958H515L498.806 73.7026Z" fill="#A54C18" />
<path d="M641.42 129.196C635.988 129.196 631.003 128.37 626.464 126.72C621.994 125.001 618.419 122.491 615.737 119.19C613.055 115.89 611.714 111.901 611.714 107.225L611.817 104.956H626.98L626.877 106.606C626.877 109.632 628.217 112.039 630.899 113.827C633.581 115.615 637.329 116.509 642.142 116.509C647.231 116.509 650.91 115.855 653.179 114.549C655.448 113.173 656.583 111.351 656.583 109.082C656.583 107.088 655.826 105.437 654.314 104.131C652.87 102.756 651.013 101.69 648.744 100.933C646.543 100.108 643.483 99.1455 639.564 98.0453C633.994 96.4637 629.49 94.9509 626.051 93.5068C622.613 92.0627 619.656 89.9311 617.181 87.1117C614.705 84.2236 613.468 80.4416 613.468 75.7656C613.468 69.3017 616.081 64.3851 621.307 61.0156C626.533 57.6462 633.478 55.9614 642.142 55.9614C650.325 55.9614 656.995 57.7149 662.153 61.2219C667.379 64.6601 669.992 69.8518 669.992 76.797V78.0348H655.139V77.1065C655.139 74.4934 653.935 72.4305 651.529 70.9177C649.191 69.4049 645.993 68.6485 641.936 68.6485C637.604 68.6485 634.269 69.233 631.931 70.4019C629.662 71.5709 628.527 73.1869 628.527 75.2498C628.527 76.8314 629.215 78.2067 630.59 79.3757C631.965 80.4759 633.684 81.4043 635.747 82.1607C637.81 82.8483 640.733 83.7079 644.515 84.7393C650.153 86.2522 654.761 87.765 658.336 89.2778C661.981 90.7218 665.11 92.8879 667.723 95.776C670.336 98.6641 671.642 102.446 671.642 107.122C671.642 114.686 668.926 120.256 663.494 123.832C658.13 127.408 650.772 129.196 641.42 129.196Z" fill="#A54C18" />
<path d="M707.64 129.196C698.356 129.196 691.446 126.892 686.907 122.285C682.369 117.678 680.099 110.526 680.099 100.83C680.099 91.1344 682.369 83.9829 686.907 79.3757C691.446 74.7685 698.356 72.4649 707.64 72.4649C716.923 72.4649 723.834 74.7685 728.372 79.3757C732.979 83.9829 735.283 91.1344 735.283 100.83C735.283 110.526 732.979 117.678 728.372 122.285C723.834 126.892 716.923 129.196 707.64 129.196ZM707.64 117.643C712.247 117.643 715.582 116.337 717.645 113.724C719.708 111.042 720.739 107.019 720.739 101.655V100.005C720.739 94.6414 719.708 90.6531 717.645 88.04C715.582 85.3582 712.247 84.0173 707.64 84.0173C703.032 84.0173 699.697 85.3582 697.634 88.04C695.64 90.6531 694.643 94.6414 694.643 100.005V101.655C694.643 107.019 695.64 111.042 697.634 113.724C699.697 116.337 703.032 117.643 707.64 117.643Z" fill="#A54C18" />
<path d="M769.046 129.196C760.381 129.196 753.883 126.892 749.551 122.285C745.288 117.678 743.156 110.526 743.156 100.83C743.156 91.2032 745.288 84.0861 749.551 79.4789C753.883 74.8029 760.381 72.4649 769.046 72.4649C776.266 72.4649 782.008 74.3215 786.271 78.0348C790.603 81.6793 792.769 87.0429 792.769 94.1257H778.535C778.535 90.825 777.676 88.2807 775.957 86.4928C774.237 84.705 771.831 83.811 768.736 83.811C764.886 83.811 762.032 85.1863 760.175 87.9369C758.387 90.6187 757.493 94.6414 757.493 100.005V101.655C757.493 107.019 758.422 111.076 760.278 113.827C762.204 116.509 765.264 117.849 769.458 117.849C772.415 117.849 774.753 116.955 776.472 115.168C778.26 113.311 779.154 110.767 779.154 107.535H792.769C792.769 114.617 790.638 120.016 786.374 123.729C782.111 127.373 776.335 129.196 769.046 129.196Z" fill="#A54C18" />
<path d="M803.772 53.3828H817.903V66.7918H803.772V53.3828ZM803.772 73.7026H817.903V127.958H803.772V73.7026Z" fill="#A54C18" />
<path d="M845.063 129.196C840.869 129.196 837.018 128.095 833.511 125.895C830.004 123.694 828.25 119.706 828.25 113.93C828.25 106.985 831.104 102.068 836.811 99.1799C842.519 96.223 850.599 94.7446 861.051 94.7446V90.9281C861.051 88.5214 860.501 86.6647 859.401 85.3582C858.369 84.0517 856.375 83.3984 853.418 83.3984C850.255 83.3984 847.986 83.8798 846.61 84.8425C845.304 85.8052 844.651 86.9398 844.651 88.2463V89.7935H831.035C830.966 89.3809 830.932 88.6245 830.932 87.5243C830.932 82.9858 832.926 79.3413 836.915 76.5908C840.972 73.8402 846.335 72.4649 853.005 72.4649C860.432 72.4649 865.968 73.9777 869.612 77.0033C873.325 80.029 875.182 84.3955 875.182 90.103V114.033C875.182 115.271 875.526 116.199 876.213 116.818C876.901 117.368 877.761 117.643 878.792 117.643H881.68V127.545C879.48 128.645 876.764 129.196 873.532 129.196C870.712 129.196 868.34 128.577 866.414 127.339C864.558 126.101 863.286 124.348 862.598 122.078H861.979C859.985 124.416 857.681 126.204 855.068 127.442C852.524 128.611 849.189 129.196 845.063 129.196ZM849.498 118.056C853.487 118.056 856.409 116.955 858.266 114.755C860.123 112.486 861.051 109.495 861.051 105.781V104.131C848.742 104.131 842.588 106.881 842.588 112.383C842.588 114.102 843.138 115.477 844.238 116.509C845.407 117.54 847.16 118.056 849.498 118.056Z" fill="#A54C18" />
<path d="M889.897 53.3828H904.028V127.958H889.897V53.3828Z" fill="#A54C18" />
<path d="M202.383 10.3791C207.297 5.93723 215.083 10.0161 214.229 16.5845L212.704 28.3088C212.261 31.716 214.312 34.9543 217.582 36.0096L228.833 39.6407C235.137 41.675 235.498 50.4575 229.382 53.0018L218.466 57.5434C215.294 58.8633 213.515 62.2589 214.236 65.6184L216.717 77.1781C218.107 83.6543 210.682 88.358 205.421 84.3339L196.03 77.1512C193.3 75.0638 189.47 75.2212 186.921 77.5253L178.151 85.454C173.237 89.8959 165.451 85.8171 166.306 79.2487L167.83 67.5244C168.274 64.1171 166.222 60.8788 162.952 59.8236L151.701 56.1925C145.397 54.1582 145.036 45.3757 151.152 42.8313L162.068 38.2897C165.24 36.9698 167.019 33.5742 166.298 30.2148L163.817 18.655C162.427 12.1788 169.852 7.47518 175.113 11.4992L184.505 18.6819C187.234 20.7693 191.064 20.612 193.613 18.3078L202.383 10.3791Z" fill="#A54C18" />
<path d="M137.401 32.86C138.107 30.5391 137.584 28.0184 136.013 26.1701L115.899 2.51169C112.481 -1.50841 106.032 -0.549015 103.932 4.29185L92.056 31.6728C90.8424 34.4707 87.9829 36.1862 84.9431 35.9401L55.1949 33.5312C49.9355 33.1053 46.0535 38.3441 47.9918 43.2518L58.9553 71.0108C60.0756 73.8474 59.2667 77.0824 56.9431 79.0578L34.2046 98.3896C30.1845 101.807 31.1439 108.257 35.9847 110.357L63.3657 122.233C66.1636 123.446 67.8791 126.306 67.633 129.346L65.2241 159.094C64.7982 164.353 70.037 168.235 74.9447 166.297L102.704 155.333C105.54 154.213 108.775 155.022 110.751 157.346L130.083 180.084C133.5 184.104 139.95 183.145 142.049 178.304L153.926 150.923C155.139 148.125 157.999 146.41 161.038 146.656L190.787 149.065C196.046 149.491 199.928 144.252 197.99 139.344L186.363 109.907C185.595 107.962 184.012 106.453 182.033 105.779L168.108 101.036C164.006 99.6388 159.654 102.241 157.949 106.224C152.929 117.95 142.125 126.876 128.583 128.89C107.821 131.979 88.4868 117.652 85.3984 96.8901C82.3099 76.1283 96.637 56.7939 117.399 53.7055C119.774 53.3522 122.13 53.2268 124.445 53.3128C128.144 53.4503 131.761 51.3989 132.839 47.8572L137.401 32.86Z" fill="#A54C18" />
<path d="M36.4047 65.7664C36.4047 75.8193 28.2552 83.9688 18.2023 83.9688C8.14947 83.9688 0 75.8193 0 65.7664C0 55.7136 8.14947 47.5641 18.2023 47.5641C28.2552 47.5641 36.4047 55.7136 36.4047 65.7664Z" fill="#A54C18" />
</svg>
