<svg xmlns="http://www.w3.org/2000/svg" xmlns:xlink="http://www.w3.org/1999/xlink" id="Layer_1" x="0" y="0" version="1.1" viewBox="0 0 1907 627" xml:space="preserve" style="enable-background:new 0 0 1907 627"><style type="text/css">.st0{fill:#211d4f}.st1{fill:#bf5dff}.st2{fill:#03e9ca}.st3{fill:#ffca6a}.st4{fill:#0075f4}</style><g><path d="M1349.1,502.7c-57.1,0-103.4-46.3-103.4-103.4c0-28.6,11.6-54.4,30.3-73.1l-80.8-80.8 c-39.4,39.4-63.7,93.8-63.7,153.9c0,120.2,97.4,217.6,217.6,217.6c60.1,0,114.5-24.4,153.9-63.7l-80.8-80.8 C1403.5,491.1,1377.7,502.7,1349.1,502.7z" class="st0"/><path d="M1566.8,399.3h-114.2c0,28.6-11.6,54.4-30.3,73.1l80.8,80.8C1542.4,513.8,1566.8,459.4,1566.8,399.3z" class="st1"/><path d="M1422.2,326.1l80.8-80.8c-39.4-39.4-93.8-63.7-153.9-63.7v114.2C1377.7,295.9,1403.5,307.4,1422.2,326.1z" class="st2"/><path d="M1452.5,399.3h114.2c0-60.1-24.4-114.5-63.7-153.9l-80.8,80.8C1440.9,344.9,1452.5,370.7,1452.5,399.3z" class="st3"/><path d="M1349.1,295.9V181.6c-60.1,0-114.5,24.4-153.9,63.7l80.8,80.8C1294.7,307.4,1320.6,295.9,1349.1,295.9z" class="st4"/><path d="M647.3,181.6c-120.2,0-217.7,97.4-217.7,217.7s97.4,217.7,217.7,217.7S865,519.5,865,399.2 S767.5,181.6,647.3,181.6z M647.3,502.3c-56.9,0-103-46.1-103-103s46.1-103,103-103c56.9,0,103,46.1,103,103 S704.2,502.3,647.3,502.3z" class="st0"/><path d="M939.4,9.3H1059v600.6H939.4V9.3z" class="st0"/><path d="M1635.9,195.5h95l12,62.1h1.5c27.7-50.1,75.5-66.6,112.2-66.6c12.7,0,22.4,0.8,31.4,3v112.2 c-11.2-3-23.2-3.7-34.4-3.7c-50.1,0-98,26.9-98,104.7v202.7h-119.7V195.5z" class="st0"/><path d="M391.5,553.2l-80.8-80.8c-18.7,18.7-44.6,30.3-73.1,30.3c-57.1,0-103.4-46.3-103.4-103.4 c0-28.6,11.6-54.4,30.3-73.1c18.7-18.7,44.6-30.3,73.1-30.3s54.4,11.6,73.1,30.3l80.8-80.8c-39.4-39.4-93.8-63.7-153.9-63.7 c-60.1,0-114.5,24.4-153.9,63.7C44.4,284.8,20,339.2,20,399.3c0,120.2,97.4,217.6,217.6,217.6C297.7,616.9,352.2,592.5,391.5,553.2 z" class="st0"/></g><image style="display:none;overflow:visible" width="1907" height="625" transform="matrix(1 0 0 1 405 1)" xlink:href="../../../../../../Desktop/logo-blue.png"/></svg>