<svg xmlns="http://www.w3.org/2000/svg" xmlns:xlink="http://www.w3.org/1999/xlink" width="395" height="327" version="1.1" viewBox="0 0 395 327"><title>Colorful Triangles</title><desc>Created with sketchtool.</desc><g id="Page-1" fill="none" fill-rule="evenodd" stroke="none" stroke-width="1"><g id="Artboard-1"><g id="Colorful-Triangles" transform="translate(-23.000000, -40.000000)"><path id="Triangle-1" fill="#F39C12" d="M83,88 L23,88 L23,40 L83,88 Z"/><path id="Triangle-1" fill="#4990E2" d="M142.912178,135.963292 L162.632034,69.471875 L83,88 L142.912178,135.963292 Z"/><path id="Triangle-1" fill="#F0B534" d="M83,88 L51.5260372,88 L23,40 L83,88 Z" transform="translate(53.000000, 64.000000) scale(-1, -1) translate(-53.000000, -64.000000)"/><polygon id="Triangle-1" fill="#EA6E61" points="83.122 88.024 142.857 135.931 52.463 163.609"/><path id="Path-4" fill="#F0B534" d="M82.991889,87.9324203 L52.717124,162.970293 L22.442359,87.9324203 L82.991889,87.9324203 Z"/><path id="Path-5" fill="#C0392B" d="M52.4199664,163.509799 L142.854537,135.955631 L152.258837,190.836442 L52.4199664,163.509799 Z"/><path id="Path-6" fill="#3A539B" d="M83.2296064,87.8285499 L162.714122,69.3310902 L30.6125177,1.46603029 L83.2296064,87.8285499 Z"/><path id="Path-7" fill="#049372" d="M52.494733,163.356341 L15.1016551,253.337257 L152.187059,190.800656 L52.494733,163.356341 Z"/><path id="Path-8" fill="#F39C12" d="M142.893368,135.95442 L180.337391,133.070834 L162.728907,69.5171875 L142.893368,135.95442 Z"/><path id="Path-9" fill="#3A539B" d="M142.925,136.013672 L180.603963,133.059822 L152.171412,190.964584 L142.925,136.013672 Z"/><path id="Path-10" fill="#4990E2" d="M152.36982,191.161959 L194.73885,131.887371 L180.528083,132.746516 L152.36982,191.161959 Z"/><path id="Path-11" fill="#F0B534" d="M162.709488,69.5471628 L194.37493,132.281034 L180.24614,132.916807 L162.709488,69.5471628 Z"/><path id="Path-13" fill="#3FC380" d="M162.465759,69.243508 L200.917425,36.8579013 L105.107384,40 L162.465759,69.243508 Z"/><path id="Path-14" fill="#049372" d="M162.283626,69.3672658 L251.68649,39.6031798 L197.758556,39.2565289 L162.283626,69.3672658 Z"/><path id="Path-15" fill="#C0392B" d="M162.518976,69.40598 L258.936609,37.332116 L162.518976,69.40598 Z"/><path id="Path-17" fill="#4990E2" d="M182.414656,249 L6.0585935,250.171624 L0.276005964,383.835976 L182.414656,249 Z"/><path id="Path-12" fill="#3FC380" d="M18.3026936,251.940212 L182.414656,249.568 L152.197133,190.82455 L18.3026936,251.940212 Z"/><path id="Path-17" fill="#EA6E61" d="M162.521363,69.0818787 L262.578379,35.8571167 L194.451897,132.452972 L162.521363,69.0818787 Z"/><path id="Path-18" fill="#F39C12" d="M152.034078,191.319977 L230.088602,192.437583 L194.304339,132.227291 L152.034078,191.319977 Z"/><path id="Path-19" fill="#C0392B" d="M194.417387,132.386712 L314.866975,18.7350778 L259.42459,39.2503511 L194.417387,132.386712 Z"/><path id="Path-20" fill="#F0B534" d="M194.125274,132.311584 L270.594417,107.198947 L230.03429,192.686274 L194.125274,132.311584 Z"/><path id="Path-21" fill="#3FC380" d="M194.341855,132.181934 L302.393516,30.7996723 L270.846943,106.941239 L194.341855,132.181934 Z"/><path id="Path-22" fill="#049372" d="M270.712348,106.814844 L331.855262,63.9961 L303.460214,26.8389378 L270.712348,106.814844 Z"/><path id="Path-23" fill="#4990E2" d="M330.131947,65.9825738 L286.528568,5.70664532 L490.910395,0.973990751 L330.131947,65.9825738 Z"/><path id="Path-25" fill="#C0392B" d="M270.818749,106.83409 L330.685802,158.022207 L358.830574,104.366317 L270.818749,106.83409 Z"/><path id="Path-26" fill="#EA6E61" d="M270.54141,106.927656 L329.865552,65.3531666 L358.375524,104.34343 L270.54141,106.927656 Z"/><path id="Path-56" fill="#3A539B" d="M329.974504,65.8190584 L432.07177,24.682416 L358.541324,104.638257 L329.974504,65.8190584 Z"/><path id="Path-57" fill="#3A539B" d="M16.628064,74.4493763 L52.5994007,163.235018 L16.6280639,249.377836 L16.628064,74.4493763 Z"/></g></g></g></svg>