<svg xmlns="http://www.w3.org/2000/svg" xmlns:xlink="http://www.w3.org/1999/xlink" width="563" height="348" version="1.1" viewBox="0 0 563 348"><title>Wireframe triangles</title><desc>Created with sketchtool.</desc><g id="Page-1" fill="none" fill-rule="evenodd" stroke="none" stroke-width="1"><g id="Artboard-1" transform="translate(-461.000000, -420.000000)"><g id="Wireframe-triangles" transform="translate(416.000000, 420.000000)"><path id="Stroke-1" stroke="#D5E0EB" d="M45.0771629,320.06594 L122.750879,327.934511 L182.020481,320.06594 L86.6877068,362.027396 L122.750879,327.934511 L154.650894,278.758194 L217.760695,291.215513 L182.020481,320.06594 L154.650894,356.781932 L237.177997,364.651255 L248.273491,308.919047 L274.626886,251.877916 L329.414127,254.500272 L302.366748,322.688296 L347.444211,296.461728 L314.156978,382.352535 L432.745751,367.27286 L383.507383,330.556116 L389.054755,273.514233 L398.070548,215.16042 L466.725467,220.405884 L469.501406,251.877916 L442.455529,322.688296 L493.774348,327.934511 L514.578118,306.297442 L576.994685,342.35747 L590.864616,296.461728 L582.542057,259.744984 L499.322471,230.240096 L484.757804,167.9535 L571.446562,192.868138 L639.178422,51.6831846 L603.34808,80.7507635 L579.76762,0.105420223"/><path id="Stroke-3" stroke="#D5E0EB" d="M302.367048,321.595848 L314.156527,381.260087 L383.506933,330.556191"/><path id="Stroke-4" stroke="#D5E0EB" d="M383.507083,330.556041 L347.443911,296.461653"/><path id="Stroke-5" stroke="#D5E0EB" d="M466.725767,220.406034 L484.758105,167.952899 L398.070848,215.160571 L329.414427,254.500422 L389.055055,273.514383 L347.444511,296.461878 L329.414427,254.500422 L248.273792,308.919198 L302.367048,322.688446 L237.177547,365.305867 L314.156527,383.226554"/><path id="Stroke-6" stroke="#D5E0EB" d="M499.090542,227.835568 L493.774499,327.934436 L492.973111,325.424788 L469.501556,251.87784 L499.322621,230.24002 L499.838603,232.815039 L514.578268,306.297367 L582.541456,259.744909 L600.574544,212.537989 L570.751977,191.465967 L603.347479,80.7506883 L571.446713,190.246458 L499.322621,230.24002 L466.725617,220.405809 L389.054905,273.514158 L442.455679,322.688221 L432.745901,367.272785 L493.774499,327.934436 L576.994835,342.357395 L552.721142,367.272785 L493.774499,327.934436 L493.774499,359.405716 L432.745901,367.272785 L451.46997,404.645494 L493.774499,359.405716"/><path id="Stroke-8" stroke="#D5E0EB" d="M580.924411,259.744759 L571.446713,190.246308"/><path id="Stroke-9" stroke="#D5E0EB" d="M469.501181,251.877916 L389.055281,273.514233"/><path id="Stroke-11" stroke="#D5E0EB" d="M552.721292,367.27301 L597.800257,396.122686 L576.994234,342.357621 L606.121315,327.934661 L590.864165,296.461878 L514.578419,306.297593"/><g id="Group-16" stroke="#67809F" transform="translate(570.058893, 148.320167)"><path id="Stroke-12" d="M69.1193028,114.048601 L20.2241724,145.57849 L12.4829378,111.424742 L69.1193028,114.048601 L69.1193028,114.048601 Z"/><path id="Stroke-14" d="M0.693158567,43.2373191 L64.0327853,0.618395176 L30.5157257,64.2176716 L69.1190024,114.048451 L36.0623462,179.614119 L27.7412889,247.802143"/></g><path id="Stroke-17" stroke="#D5E0EB" d="M635.01579,351.427742 L606.120789,327.933985"/><path id="Stroke-21" stroke="#D5E0EB" d="M112.809473,232.86418 L102.869869,272.530887 L122.750579,327.933985 L80.0983067,306.296917"/><g id="Group-24" transform="translate(76.608705, 272.299759)"><path id="Fill-22" fill="#221F20" d="M26.2608632,0.231128015 L0.716366499,1.21469944"/><path id="Stroke-23" stroke="#D5E0EB" d="M26.2608632,0.231128015 L0.716366499,1.21469944"/></g><path id="Stroke-25" stroke="#D5E0EB" d="M31.9012167,392.844515 L86.6877068,362.026945 L72.1245422,339.680563"/><path id="Stroke-26" stroke="#D5E0EB" d="M174.069774,254.500422 L154.650969,278.758344 L125.52464,266.630135"/><path id="Stroke-30" stroke="#D5E0EB" d="M552.713256,55.1803108 L603.347854,80.7509137 L618.603501,14.5292811"/><path id="Stroke-31" stroke="#D5E0EB" d="M463.953283,105.009512 L484.757804,167.953575 L445.227712,161.396182"/><path id="Stroke-32" stroke="#D5E0EB" d="M493.774348,114.517094 L484.757804,167.953049"/><path id="Stroke-33" stroke="#D5E0EB" d="M485.356404,167.953199 L404.311904,176.866956"/><path id="Stroke-34" stroke="#D5E0EB" d="M347.444211,223.028616 L329.414127,254.500647 L329.414127,209.914581"/><path id="Stroke-35" stroke="#D5E0EB" d="M271.852825,209.980478 L329.420511,254.433548"/><path id="Stroke-36" stroke="#D5E0EB" d="M217.76062,293.183182 L248.273416,308.918822 L182.020406,320.065714 L154.650819,278.75872 L154.650819,232.864481"/><path id="Stroke-37" stroke="#D5E0EB" d="M235.244904,362.77195 L182.020631,320.065865"/><path id="Stroke-38" stroke="#D5E0EB" d="M398.070698,215.16027 L370.561414,204.232784"/></g></g></g></svg>