<?xml version="1.0" encoding="utf-8"?>
<!-- Generator: Adobe Illustrator 21.1.0, SVG Export Plug-In . SVG Version: 6.00 Build 0)  -->
<svg version="1.1" xmlns="http://www.w3.org/2000/svg" xmlns:xlink="http://www.w3.org/1999/xlink" x="0px" y="0px"
	 viewBox="0 0 576 576" style="enable-background:new 0 0 576 576;" xml:space="preserve">
<style type="text/css">
	.st0{fill:url(#SVGID_1_);}
	.st1{fill:url(#SVGID_2_);}
	.st2{fill:url(#SVGID_3_);}
	.st3{fill:url(#SVGID_4_);}
	.st4{fill:#FFFFFF;}
</style>
<g id="Layer_3">
	
		<radialGradient id="SVGID_1_" cx="311.385" cy="269.3936" r="326.1876" fx="619.905" fy="375.2884" gradientTransform="matrix(1.3279 0 0 1.3559 -55.8172 -63.3204)" gradientUnits="userSpaceOnUse">
		<stop  offset="0" style="stop-color:#ED1B33"/>
		<stop  offset="3.340431e-02" style="stop-color:#DD262C"/>
		<stop  offset="9.244210e-02" style="stop-color:#C93023"/>
		<stop  offset="0.1528" style="stop-color:#BA331B"/>
		<stop  offset="0.2148" style="stop-color:#B23417"/>
		<stop  offset="0.2809" style="stop-color:#AF3415"/>
		<stop  offset="1" style="stop-color:#880027"/>
	</radialGradient>
	<path class="st0" d="M296.2-108.2c0,0-2,222.5,34.2,232.1c29.6,7.8,130-191.5,130-191.5S403.4,122,444.4,158.1
		c26.8,23.6,223.7-34.3,223.7-34.3s-155,108.2-151,134.2c3,19.1,146.2,105,146.2,105s-160.6-20.8-176.3,4.8
		c-20,32.5,137,244.6,137,244.6S426.7,450.4,389.2,455.9c-19.7,2.9-16.8,204.1-16.8,204.1s-65.7-205.3-89.5-197.1
		c-25.3,8.8-124.4,167.8-124.4,167.8s32.1-183.5,11.2-202.7c-21.8-20-260,113.2-260,113.2S93.4,370,74.6,341.3
		c-21-32.2-202.4-33.7-202.4-33.7S56,255,78.8,208.5C94.9,175.6,22.9,21.1,22.9,21.1s160.7,120.8,194.3,113.2
		C253.9,126.1,296.2-108.2,296.2-108.2z"/>
	
		<radialGradient id="SVGID_2_" cx="297.3423" cy="275.9208" r="294.2006" fx="575.6078" fy="371.4312" gradientTransform="matrix(1.3279 0 0 1.3559 -55.8172 -63.3204)" gradientUnits="userSpaceOnUse">
		<stop  offset="0" style="stop-color:#F5823A"/>
		<stop  offset="6.566174e-03" style="stop-color:#F58239"/>
		<stop  offset="9.430165e-02" style="stop-color:#F3792B"/>
		<stop  offset="0.1846" style="stop-color:#F27323"/>
		<stop  offset="0.2809" style="stop-color:#F17122"/>
		<stop  offset="1" style="stop-color:#EA4E3B"/>
	</radialGradient>
	<path class="st1" d="M292.2-38.7c0,0,1.5,200.8,37.7,210.4C359.5,179.5,440-6.8,440-6.8s-60.8,158.8-19.8,195
		c26.8,23.6,217.3-47.3,217.3-47.3s-165.8,99.2-161.8,125.3c3,19.1,146.9,84.4,146.9,84.4s-175.8-28.4-191.5-2.9
		C411.1,380.2,570,551.3,570,551.3S391.3,396.6,353.7,402.1c-19.7,2.9,10.9,213.9,10.9,213.9S306,412.7,282.2,421
		c-25.3,8.8-106.1,164.7-106.1,164.7s43.7-170.3,22.8-189.6c-21.8-20-251.1,118.2-251.1,118.2s211.4-177.2,190.5-204.4
		c-13.7-18-266.2-2.4-266.2-2.4s233.4-35,256.2-81.5c16.1-32.9-87.9-182-87.9-182s155.5,138.7,189.1,131.2
		C266.4,166.9,292.2-38.7,292.2-38.7z"/>
	
		<radialGradient id="SVGID_3_" cx="285.6848" cy="270.6896" r="244.3538" fx="516.8035" fy="350.0176" gradientTransform="matrix(1.3279 0 0 1.3559 -55.8172 -63.3204)" gradientUnits="userSpaceOnUse">
		<stop  offset="0" style="stop-color:#FFF33B"/>
		<stop  offset="5.948725e-02" style="stop-color:#FFE029"/>
		<stop  offset="0.1303" style="stop-color:#FFD218"/>
		<stop  offset="0.2032" style="stop-color:#FEC90F"/>
		<stop  offset="0.2809" style="stop-color:#FDC70C"/>
		<stop  offset="0.6685" style="stop-color:#F7AD42"/>
		<stop  offset="1" style="stop-color:#F29C44"/>
	</radialGradient>
	<path class="st2" d="M286.7,31c0,0,9.5,167.7,38.2,175.3c23.4,6.2,93.3-153.7,93.3-153.7s-63,142.7-31.8,173.2
		c28.7,28,154.6-36.8,154.6-36.8s-111.8,64.4-108.6,85c2.3,15.1,153.3,64.9,153.3,64.9s-189-35.8-201.4-15.6
		c-15.8,25.7,123,164.5,123,164.5S358.8,357.8,329.1,362.2c-15.6,2.3,19.1,179.7,19.1,179.7s-47-175.3-65.7-168.8
		c-20,6.9-82.7,149.3-82.7,149.3s39.2-146.1,21.9-160.1C197.6,342.8,10.5,469.3,10.5,469.3s181.8-137.5,168-167.8
		c-10-22.1-265,0-265,0s238.5-26,256.5-62.8c12.7-26-82.7-138.5-82.7-138.5s133.6,123.4,159,112.6C271.6,202.1,286.7,31,286.7,31z"
		/>
	
		<radialGradient id="SVGID_4_" cx="276.0495" cy="257.8032" r="164.864" fx="431.9838" fy="311.3253" gradientTransform="matrix(1.3279 0 0 1.3559 -55.8172 -63.3204)" gradientUnits="userSpaceOnUse">
		<stop  offset="0" style="stop-color:#FFF9B6"/>
		<stop  offset="0.2859" style="stop-color:#FDE9A7"/>
		<stop  offset="0.6314" style="stop-color:#F9DF9E"/>
		<stop  offset="1" style="stop-color:#F8DC9B"/>
	</radialGradient>
	<path class="st3" d="M284.6,92.7c0,0,10.2,147.1,29.7,152.2c16,4.2,59.4-81.9,59.4-81.9s-38.3,84.2-25.4,96.3
		c15.5,14.6,125.1-30.3,125.1-30.3s-110.7,36.1-108.6,50.2C366.3,289.5,480,309,480,309s-131.6-19-141-2
		C329,325.1,434,422.6,434,422.6s-103.8-97-124-94c-10.6,1.6,18,126.6,18,126.6s-34.2-127.5-47-123c-13.6,4.7-56.7,114.1-56.7,114.1
		s38.1-113.9,26.3-123.4c-16.5-13.3-155.4,87.3-155.4,87.3s140.1-98.4,130.7-119c-6.8-15-179.8-4.7-179.8-4.7s156.2-4.1,168.5-29.2
		c8.7-17.7-80-105-80-105s107.7,100.1,125.1,92.7C276.8,237.6,284.6,92.7,284.6,92.7z"/>
</g>
<g id="Layer_1">
	<g>
		<g>
			<path d="M362.2,386.4c-14.3,0-21.3-6.3-24.6-11.6c-1.4-2.2-2.5-5.1-3.4-8.9c-0.7-2.7-1.3-5.8-1.8-9.3
				c-1.7-11.3-2.6-27.5-2.6-47.9c0-4,0-8.1,0.1-12.4c0.3-15.6,0.8-27.5,1.4-35.3c0.3-4.2,0.7-7.4,1.2-9.6c1.6-8.1,6.4-9.3,9.1-9.3
				c0.5,0,1.1,0.1,1.6,0.2c21.9,4.5,30.7,8.9,32.7,16.4c0.2,0.7,0.3,1.3,0.3,2v0.5c0,1.1-0.2,2.2-0.5,3.1c-0.1,0.2-0.1,0.3-0.2,0.5
				c-0.2,0.5-1.2,4.2-2.3,22.5c3.1-4.8,6.1-9.6,9.1-14.4c17-26.7,20.6-29.2,25.9-29.2c0.9,0,1.9,0.2,2.8,0.5
				c1.5-0.1,5.6-0.9,15.8-5.3c1-0.4,2.1-0.6,3.1-0.6c1.2,0,2.4,0.3,3.5,0.8c2.1,1,3.6,2.9,4.2,5.2l13.2,50.6
				c3.7-7.4,7.5-14.8,11.5-22.1c1.7-3.1,3.3-6.1,4.9-8.8c6.3-11.5,12-21.8,14.9-27.7c-1.9-0.8-3.7-1.6-4.5-2
				c-10-4.6-13.7-6.3-13.7-11.9c0-3.5,2.2-6.6,5.5-7.7c21.3-7.1,51.6-20.9,51.9-21.1c1.1-0.5,2.2-0.7,3.3-0.7c1.2,0,2.5,0.3,3.6,0.9
				c2.2,1.1,3.7,3.1,4.2,5.5c0.1,0.4,9.2,42.9,13.1,54.5c0.8,2.5,0.4,5.3-1.1,7.4c-1.6,2.2-4,3.4-6.7,3.4c0,0,0,0,0,0
				c-2.8,0-5.3-1.1-14.8-6c-1-0.5-2.2-1.1-3.3-1.7c-2.6,5.2-6.1,13.1-10.9,23.8c-3.5,7.8-7.8,17.5-13,28.9
				c-16.5,36.5-20.1,47.8-20.8,51.2c0.4,1,0.6,2,0.6,3v0.3c0,10.1-12.6,14.6-34.3,19.1c-0.5,0.1-1.1,0.2-1.6,0.2
				c-3.5,0-6.7-2.3-7.7-5.8c-8.3-29-15.7-51.7-22.1-67.5c-2.2,4.2-5.2,10.1-9.1,18.3c-10.9,22.4-17.5,38.2-19.4,47.2
				C380.1,380.5,376,386.4,362.2,386.4z"/>
			<path class="st4" d="M524.6,200.8c0,0,9.3,43.3,13.4,55.4c0.1,0.2,0,0.3-0.2,0.3c-2.3,0-19.4-9.8-21.5-9.8c-0.1,0-0.2,0-0.2,0.1
				c-4.6,6.8-11.6,24-27.7,59.5c-14.5,32-21.7,50.5-21.7,55.4v0.7c0.1,0.2,0.2,0.4,0.3,0.5c0.2,0.3,0.3,0.5,0.4,0.8l0.1,0.2v0.3
				c0,3.7-9.3,7.5-27.9,11.3c-11-38.5-20.4-65.6-28.2-81.4c-0.1-0.3-0.3-0.4-0.5-0.4c-1.6,0-7.4,10.4-17.5,31.2
				c-11.3,23.1-18,39.5-20.1,49c-0.6,3.1-4.3,4.7-11.1,4.7c-8.6,0-14.5-2.6-17.8-7.8c-0.9-1.5-1.7-3.7-2.5-6.7
				c-0.6-2.4-1.2-5.2-1.6-8.4c-1.7-11.1-2.5-26.7-2.5-46.8c0-4,0-8,0.1-12.2c0.6-31,1.9-46.4,3.7-46.4c16.8,3.4,25.6,7,26.6,10.6
				v0.5c0,0.3,0,0.5-0.1,0.7c-1.1,2.7-2.1,11.6-3,26.7c-0.6,9.4-0.9,16.3-0.9,20.7c0,2.3,0.1,4,0.2,5l0.1,0.7
				c0.1,0.3,0.1,0.4,0.2,0.4c0.1,0,0.1-0.1,0.2-0.2c8.1-12.6,16.1-25.3,24.2-37.9c10.8-17,17.2-25.5,19.1-25.5c0.1,0,0.3,0,0.4,0.1
				c0.4,0.3,1.1,0.4,2,0.4c3.6,0,10.1-2,19.3-5.9l18.5,71.3c6.9-13.7,13.5-27.5,20.8-40.9c13.5-24.6,21.8-39.2,22.5-43.3l-0.9-2
				c-1.3-0.4-20.2-8.7-19-9.1C493.8,214.8,524.6,200.8,524.6,200.8 M524.6,184.8c-2.3,0-4.5,0.5-6.6,1.4
				c-0.3,0.1-30.3,13.8-51.1,20.7c-6.6,2.2-11,8.4-11,15.4c0.1,10,8.2,14.1,11.6,15.8c1,0.5,2.2,1.1,3.6,1.8
				c-3,5.6-6.9,12.7-10.9,20c-1.5,2.8-3.2,5.8-4.9,8.9c-0.7,1.2-1.3,2.4-2,3.6l-7.9-30.3c-1.2-4.5-4.3-8.3-8.4-10.3
				c-2.2-1.1-4.6-1.6-7-1.6c-2.1,0-4.3,0.4-6.3,1.3c-7,3-10.7,4.1-12.3,4.4c-1-0.2-2.1-0.3-3.1-0.3c-9.4,0-15,7.4-19,12.8
				c-1.6,2.2-3.5,4.8-5.6,7.9c-2.9-10.3-13.4-14.5-16.8-15.9c-5.4-2.1-12.5-4.1-21.9-6c-1.1-0.2-2.1-0.3-3.2-0.3
				c-6.7,0-12.5,3.9-15.3,10.3c-0.7,1.6-1.2,3.3-1.6,5.5c-0.5,2.6-0.9,6-1.3,10.6c-0.7,8.1-1.1,19.8-1.5,35.8c0,0,0,0.1,0,0.1
				c-0.1,4.3-0.1,8.5-0.1,12.5c0,21.1,0.9,37.1,2.6,49.1c0.5,3.7,1.2,7.1,2,10.1c1.2,4.6,2.6,8.1,4.3,11c0,0,0.1,0.1,0.1,0.1
				c4.4,7,13.3,15.4,31.4,15.4c20.7,0,25.6-11.8,26.7-17.4c1.3-5.8,5.6-18.3,18.8-45.3c0,0,0,0,0-0.1c0.3-0.6,0.6-1.2,0.8-1.7
				c4.7,13.5,9.9,30.1,15.5,49.7c2,7,8.4,11.6,15.4,11.6c1.1,0,2.1-0.1,3.2-0.3c10.3-2.1,18.1-4.3,23.7-6.5c3.8-1.5,6.8-3.2,9.2-5.2
				c6.7-5.4,7.7-11.9,7.7-15.3v-0.3c0-1-0.1-2.1-0.3-3.1c1.3-4.5,5.6-16.5,19.8-47.8c5.2-11.4,9.5-21.1,13-28.9
				c2.8-6.3,5.2-11.8,7.3-16.3c6.7,3.4,10.2,4.8,14.5,4.8c5.3,0,10.2-2.5,13.2-6.7c3-4.2,3.8-9.7,2.2-14.6
				c-3.1-9.2-10.3-41.8-12.9-53.6c-1-4.7-4.1-8.8-8.5-10.9C529.6,185.3,527.1,184.8,524.6,184.8L524.6,184.8z"/>
		</g>
	</g>
	<g>
		<path d="M151,402.3c-5.4,0-10.6-2.9-15.9-8.8c-4.5-5-7.5-10.9-9.1-17.3c-0.3-1.2-0.5-2.3-0.7-3.5l0-0.2c-0.2-1.5-0.3-3-0.3-4.4
			l0-1c0.1-4.9,1.9-16.1,16.5-56.9c13.6-38.5,17.8-46.9,20.1-50c4.2-5.7,11.6-8.6,21.8-8.6c4,0,8.6,0.4,14.1,1.3
			c4.2,0.6,11.7,3.5,14.9,15.8l0,0.2c0.3,1.2,0.5,2.5,0.7,3.8c0.3,1.8,0.5,3.7,0.5,5.6c0,0.9-0.1,1.8-0.2,2.8
			c-0.2,2.7-0.8,4.8-1.6,6.4c0.6,3.1,1.8,7.9,3.3,14.6c1,4.1,2.2,8.8,3.7,14.3c22.1-33.3,43.9-58.3,64.8-74.5l3.8-2.9l4.3,1.9
			c28.3,12.4,30.2,15.2,31.3,19.5l0.3,1v1.3c0,2.3-1,5.1-3.8,7c-1.2,3.5-4.1,15.4-8.6,54.7c-4.1,33.4-6.2,54.6-6.2,62.8
			c0,0.7,0,1.1,0.1,1.3l0.1,0.5v0.7c0,5.1-3.6,10.6-11.4,10.6c-7.5,0-17.7-4-32-12.7l-0.2-0.1l-0.2-0.1c-2.4-1.6-4-4.1-5.1-7.7
			l-0.1-0.2c-0.2-1-0.4-2-0.5-3c-0.4-2.6-0.5-5.6-0.5-9.2c0-7.4,0.7-17.2,2.3-29.5c-13.2,16.5-15.3,21.1-15.7,22.3
			c-4.8,17.2-7.1,22.3-8.6,24.8l-0.1,0.2l-0.1,0.2c-2.8,4.2-8.3,9.2-18.7,9.2c-1.5,0-3.3-0.1-5.2-0.3c-12.2-1-20.5-7.7-23.2-18.9
			c-0.4-1.2-0.6-2.5-0.7-4c-0.7-4.3-1-10.1-1.1-17.8c-0.9-11.1-1.8-19.6-2.7-25.4l-0.3-1.5l0-0.2c-0.1-0.5-0.1-1-0.2-1.5
			c-1.4,4.5-3.6,12.1-6.6,24.7c-9.4,38.8-10.6,42.7-11.1,44C161,399,156.5,402.3,151,402.3z"/>
		<path class="st4" d="M288.4,248.1c17.4,7.6,26.3,12.3,26.8,14.2v0.2c0,0.2-0.3,0.4-1,0.6c-3.1,0.4-6.8,20.4-11.3,60.1
			c-4.2,33.8-6.3,55.1-6.3,63.7c0,0.9,0,1.6,0.1,2.3v0.2c0,1.8-1.1,2.6-3.4,2.6c-5.9,0-15.2-3.8-27.9-11.5c-0.7-0.5-1.3-1.6-1.8-3.2
			c-0.2-0.6-0.3-1.3-0.4-2c-0.3-2.2-0.5-5-0.5-8.2c0-9.7,1.4-24.1,4.2-43.3l-5.1-4.8c-17.4,20.8-26.8,33.6-28.3,38.6
			c-3.4,12.3-6.1,20-7.8,23c-2.5,3.8-6.5,5.7-12,5.7c-1.3,0-2.8-0.1-4.4-0.2c-8.9-0.7-14.3-5-16.2-13c-0.2-0.8-0.4-1.8-0.5-2.9
			c-0.6-3.9-1-9.7-1.1-17.2c-1-11.5-1.9-20.2-2.8-26.2l-0.2-1.4c-0.1-0.6-0.2-1.2-0.2-1.8c-0.1-0.8-0.2-1.6-0.5-2.5
			c-1.4-5.5-4.8-8.2-10.3-8.2c-2.1,0-5.9,11.6-11.4,34.9c-6.6,27.1-10.2,41.5-10.8,43.1c-0.8,2.4-2.3,3.6-4.5,3.6
			c-3,0-6.3-2-9.9-6.1c-3.6-4.1-6.1-8.7-7.3-14c-0.2-1-0.4-1.9-0.6-2.9c-0.2-1.2-0.2-2.3-0.2-3.4v-0.8c0.2-6.7,5.5-24.9,16-54.4
			c10-28.4,16.4-44.4,19-47.9c2.6-3.6,7.8-5.4,15.4-5.4c3.5,0,7.8,0.4,12.9,1.2c4,0.6,6.8,3.8,8.3,9.9c0.2,1,0.4,2.1,0.6,3.2
			c0.2,1.4,0.4,2.9,0.4,4.3c0,0.6,0,1.3-0.1,1.9c-0.2,2.9-0.7,4.3-1.4,4.3h-0.2c-0.2,0-0.2,0.3-0.2,0.8c0,0.5,0,1.2,0.1,2
			c0.6,3,1.8,8.5,3.7,16.5c2,8.1,4.9,18.7,8.5,31.9C240.9,295.3,265.1,266.1,288.4,248.1 M286.1,229.6l-7.5,5.8
			c-18.4,14.2-37.3,34.9-56.5,61.8c-1-4.1-1.6-7-2.1-9.1c0.6-1.8,1-3.9,1.2-6.4c0.1-1.2,0.2-2.4,0.2-3.6c0-2.2-0.2-4.5-0.5-6.8
			c-0.2-1.5-0.5-3-0.8-4.4l0-0.2l0-0.2c-1.4-5.4-3.5-9.8-6.5-13.3c-3.9-4.6-9.1-7.5-14.9-8.4c-5.9-0.9-10.9-1.4-15.3-1.4
			c-12.9,0-22.4,4-28.2,11.8c-2.7,3.7-6.6,10.7-21.2,52.1c-14.6,41.1-16.8,53-16.9,59.3l0,0.2v0.2v0.8c0,1.8,0.1,3.6,0.4,5.5l0,0.2
			l0,0.2c0.2,1.4,0.5,2.8,0.9,4.1c1.9,7.7,5.5,14.6,10.9,20.7c6.8,7.7,14.1,11.5,21.9,11.5c8.9,0,16.4-5.4,19.5-14.1
			c0.5-1.4,1.5-4.5,6.4-24.6c0,0.1,0,0.3,0.1,0.4c0.2,1.8,0.5,3.5,0.9,5.1c3.7,14.5,14.7,23.5,30.3,24.8c2.1,0.2,4.1,0.3,5.9,0.3
			c10.9,0,19.9-4.6,25.4-12.8l0.2-0.3l0.2-0.3c1.5-2.6,3.6-7,7.2-19c0.1,2.8,0.3,5.3,0.6,7.5c0.2,1.3,0.4,2.6,0.7,3.9l0.1,0.2
			l0.1,0.2c1.5,5.4,4.3,9.5,8.3,12.2l0.3,0.2l0.3,0.2c15.9,9.6,27,13.8,36.2,13.8c11,0,19.4-8,19.4-18.6v-0.2v-1l-0.1-0.9
			c0,0,0-0.2,0-0.4c0-5.5,1.1-20.6,6.1-61.8l0-0.1l0-0.1c3.8-33.7,6.4-46.4,7.6-51c3.2-3.3,4.8-7.6,4.8-11.5v-0.2v-2.1l-0.5-2
			c-2-7.6-8.3-11.4-15.1-15c-4.9-2.6-11.7-5.8-20.8-9.8L286.1,229.6L286.1,229.6z"/>
	</g>
	<g>
		<g>
			<g>
				<path d="M82.7,423.6c-5,0-13.9-2-17.9-15.4l-0.6-1.9l0.4-2c6.9-34.2,12.3-64,16.2-88.8c-4.2,2.3-5.8,2.8-6.9,3.1
					c-0.9,0.2-1.7,0.3-2.6,0.3c-1.6,0-3.1-0.4-4.4-1.2l-0.7-0.4l-0.6-0.5c-2.1-1.9-2.7-4.3-2.9-5.1c-0.6-2.1-1.3-6.5-2.4-21.2
					l-0.2-2.9l1.7-2.4c4.2-5.8,8.1-10.9,11.6-15.1c11.5-14.6,15.7-18,18.5-19.5l0.2-0.1c5.2-2.7,9.8-4.5,13.9-5.6
					c2.9-0.8,5.5-1.1,7.8-1.1c7.5,0,13,4,14.8,10.7c0.2,0.7,0.4,1.6,0.5,2.5l0,0.3l0,0.3c0.6,8.7,0.3,18-0.9,27.7
					c-1.2,8.8-2.1,12.2-2.8,14.1c-3,14.3-5.9,28.5-8.9,42.4c-8.6,41-9.7,52.2-9.6,55.2l0.1,1.9l-0.8,1.7c-1.8,3.9-3.8,8-5.8,12
					c-2.7,5.4-6.9,8.9-12.3,10.3c-1.1,0.3-2.3,0.5-3.5,0.6C84,423.6,83.4,423.6,82.7,423.6z"/>
				<path class="st4" d="M113.8,251.8c3.9,0,6.2,1.6,7.1,4.8c0.1,0.5,0.2,1,0.3,1.7c0.6,8.2,0.3,16.9-0.9,26
					c-1,7.1-1.8,11.4-2.5,12.6c-3,14.4-6,28.8-9,43.2c-6.7,32.1-10,51.1-9.8,57.1c-1.8,3.9-3.7,7.9-5.7,11.8c-1.6,3.3-4,5.3-7.2,6.2
					c-0.7,0.2-1.4,0.3-2.1,0.3c-0.4,0-0.8,0.1-1.2,0.1c-4.9,0-8.3-3.2-10.3-9.7c8.5-42.1,14.7-77,18.6-104.7c0-0.1-0.1-0.1-0.2-0.1
					c-0.1,0-0.1,0-0.2,0c-0.8,0.2-3.7,1.8-8.9,4.8c-5.2,3-8.4,4.7-9.7,5c-0.2,0.1-0.4,0.1-0.5,0.1c-0.1,0-0.3,0-0.3-0.1
					c-0.2-0.2-0.4-0.6-0.5-1.2c-0.7-2.6-1.4-9.2-2.2-19.7c4.2-5.7,7.9-10.6,11.4-14.8c8.1-10.2,13.4-16.1,16.1-17.5
					c4.7-2.4,8.7-4,12.2-4.9C110.2,252.1,112.2,251.8,113.8,251.8 M113.8,235.8c-3.1,0-6.3,0.5-9.9,1.4c-4.7,1.2-9.7,3.2-15.5,6.2
					l-0.2,0.1l-0.2,0.1c-4.2,2.3-9.2,6.7-20.9,21.5c-3.6,4.4-7.6,9.6-11.9,15.5l-3.5,4.7l0.4,5.9c1.1,15.2,2,20,2.7,22.6
					c1,3.7,2.8,6.7,5.3,9.1l1.2,1.1l1.4,0.8c2.4,1.4,5.2,2.2,8,2.3c-3.6,21.9-8.3,47.3-14.1,75.7l-0.8,4l1.2,3.9
					c4,13.2,13.6,21,25.6,21c0.8,0,1.7,0,2.5-0.1c1.7-0.1,3.3-0.4,4.9-0.8c7.6-2,13.8-7.1,17.4-14.5c2-4.1,4-8.2,5.9-12.2l1.6-3.4
					l-0.1-3.8c0-1.7,0.6-10.8,9.5-53.3c2.9-13.7,5.8-27.8,8.7-41.8c1-2.8,1.9-7,3-15.1l0-0.1l0-0.1c1.3-10.2,1.7-20.1,1-29.3l0-0.6
					l-0.1-0.6c-0.2-1.2-0.4-2.4-0.7-3.4C133.7,242.2,125,235.8,113.8,235.8L113.8,235.8z"/>
			</g>
		</g>
	</g>
</g>
</svg>
