<?xml version="1.0" encoding="utf-8"?>
<!-- Generator: Adobe Illustrator 21.1.0, SVG Export Plug-In . SVG Version: 6.00 Build 0)  -->
<svg version="1.1" id="Layer_1" xmlns="http://www.w3.org/2000/svg" xmlns:xlink="http://www.w3.org/1999/xlink" x="0px" y="0px"
	 viewBox="0 0 576 576" style="enable-background:new 0 0 576 576;" xml:space="preserve">
<style type="text/css">
	.st0{fill:#FFFFFF;}
</style>
<g>
	<g>
		<path d="M158,474.8c-20.7,0-35.4-6.7-43.7-20c-2.3-3.8-4.3-9.1-6.1-16.1c-1.4-5.3-2.6-11.4-3.5-18.3c-3.5-23.2-5.2-56.3-5.2-98.2
			c0-8.2,0.1-16.8,0.2-25.5c0.7-32.2,1.7-56.6,2.9-72.8c0.7-8.4,1.4-14.6,2.3-19c0.7-3.4,2.5-12.5,10.5-12.5c0.5,0,1.1,0.1,1.6,0.2
			c50.1,10.3,59,19.4,61.2,27.8c0.2,0.7,0.3,1.3,0.3,2v1c0,1.4-0.2,2.7-0.6,3.9c-0.1,0.2-0.1,0.3-0.2,0.5
			c-0.9,2.2-3.2,11.8-5.6,52.8c-0.7,11.4-1.2,21.1-1.5,29c12.3-19.2,24.5-38.4,36.5-57.4c11.3-17.7,20.4-31.3,27.1-40.2
			c9.3-12.4,14-16.4,19.3-16.4c1.5,0,2.9,0.3,4.2,1c0.2,0,0.4,0,0.7,0c4.4,0,14.4-2,36.9-11.6c1-0.4,2.1-0.6,3.1-0.6
			c1.2,0,2.4,0.3,3.5,0.8c2.1,1,3.6,2.9,4.2,5.2l33.1,127.3c1.3-2.5,2.5-5.1,3.8-7.6c9.6-19.3,19.5-39.3,30.1-58.5
			c3.6-6.5,6.9-12.6,10.2-18.4c17.1-30.9,31-56.1,34.8-65.9c-4.8-2-12-5.2-17.1-7.6c-19.7-9-23.4-10.9-23.5-16.9
			c0-3.5,2.2-6.6,5.6-7.8c44.5-14.8,107.9-43.7,108.5-44c1.1-0.5,2.2-0.7,3.3-0.7c1.2,0,2.5,0.3,3.6,0.9c2.2,1.1,3.7,3.1,4.2,5.5
			c0.2,0.9,19.2,89.6,27.5,114c0.9,2.6,0.5,5.4-1.1,7.6c-1.6,2.2-4.1,3.5-7,3.5c-3.9,0-8.9-2.3-26.9-11.4
			c-4.4-2.2-10.4-5.3-14.5-7.2c-6,10.5-14.3,29.2-26.8,57.3c-7.2,16.1-16.1,36.2-26.9,59.9c-36.8,81.3-43.7,104.5-44.2,110.9
			c0.3,0.6,0.6,1.2,0.8,1.8c0.5,1.1,0.8,2.2,0.8,3.4v0.6c0,10.8-10.9,20.3-64.3,31.2c-0.5,0.1-1.1,0.2-1.6,0.2
			c-3.5,0-6.7-2.3-7.7-5.8c-20.4-71.2-38.3-124-53.2-157.3c-4.7,7.9-13,23.3-27.7,53.7c-23,47.1-36.8,80.7-41,99.8
			C186.8,469.4,176.4,474.8,158,474.8z"/>
		<path class="st0" d="M494.9,98.2c0,0,19.2,89.7,27.7,114.9c0.1,0.4-0.1,0.6-0.5,0.6c-4.8,0-40.2-20.3-44.5-20.3
			c-0.2,0-0.3,0-0.4,0.1c-9.6,14-24,49.8-57.5,123.5c-30,66.3-45,104.7-45,115v1.4c0.3,0.4,0.5,0.7,0.6,1c0.4,0.5,0.7,1.1,0.8,1.6
			l0.2,0.4v0.6c0,7.7-19.3,15.5-57.9,23.4c-22.9-79.8-42.4-136.1-58.5-168.9c-0.3-0.5-0.6-0.8-1-0.8c-3.3,0-15.4,21.6-36.3,64.8
			c-23.4,48-37.3,81.9-41.6,101.7c-1.2,6.5-8.9,9.7-23,9.7c-17.8,0-30.1-5.4-36.9-16.3c-1.9-3-3.6-7.7-5.2-13.9
			c-1.3-5-2.4-10.8-3.4-17.4c-3.4-23-5.2-55.4-5.2-97.1c0-8.2,0.1-16.7,0.2-25.4c1.3-64.2,3.9-96.3,7.7-96.3
			c34.8,7.1,53.1,14.5,55.1,22v1c0,0.5-0.1,1-0.2,1.4c-2.3,5.7-4.3,24.1-6.1,55.3c-1.2,19.4-1.8,33.8-1.8,43c0,4.8,0.1,8.2,0.4,10.3
			l0.2,1.4c0.1,0.5,0.3,0.8,0.4,0.8c0.1,0,0.3-0.1,0.4-0.4c16.8-26.2,33.5-52.4,50.2-78.7c22.5-35.3,35.7-52.9,39.6-52.9
			c0.3,0,0.5,0.1,0.8,0.2c0.8,0.5,2.2,0.8,4.2,0.8c7.5,0,20.9-4.1,40-12.3L337,340.1c14.4-28.4,28-57.1,43.2-84.8
			c28-51,45.3-81.4,46.8-89.9l-1.8-4.1c-2.7-0.9-41.9-18.1-39.5-18.8C431,127.3,494.9,98.2,494.9,98.2 M494.9,82.2
			c-2.3,0-4.5,0.5-6.6,1.4c-0.6,0.3-63.7,29-107.7,43.7c-6.7,2.2-11.1,8.4-11,15.4c0.1,6.2,3.2,11.2,9.4,14.9c1.3,0.8,3,1.7,5.2,2.8
			c3.4,1.7,8,3.9,13.6,6.4c1.7,0.8,5.7,2.6,9.8,4.4c-6,12.4-18.3,34.7-31.1,57.9c-3.2,5.8-6.6,12-10.2,18.4
			c-8.5,15.5-16.6,31.5-24.5,47.2L314,188.2c-1.2-4.5-4.3-8.3-8.4-10.3c-2.2-1.1-4.6-1.6-7-1.6c-2.1,0-4.3,0.4-6.3,1.3
			c-21.5,9.2-30.1,10.7-33,11c-1.8-0.6-3.8-1-5.7-1c-9.3,0-15.9,6.6-25.7,19.6c-6.9,9.2-15.9,22.5-27.5,40.7
			c-6.7,10.5-13.4,21.2-20.2,31.8c2.4-39.7,4.6-47.8,5-49.1c0.1-0.3,0.2-0.6,0.3-0.9c0.7-2,1-4.1,1-6.4v-1c0-1.4-0.2-2.7-0.5-4.1
			c-4-15.2-22.3-24.3-67.4-33.6c-1.1-0.2-2.1-0.3-3.2-0.3c-7,0-13,4.1-16,11.1c-0.9,2.1-1.7,4.6-2.3,7.8c-0.9,4.7-1.7,11.2-2.4,19.9
			c-1.3,16.3-2.3,40.9-3,73.2c0,0,0,0.1,0,0.1c-0.1,8.8-0.2,17.4-0.2,25.6c0,42.3,1.8,75.8,5.3,99.4c1,7.1,2.3,13.6,3.7,19.2
			c2,7.8,4.3,13.7,7,18.2c0,0,0.1,0.1,0.1,0.1c5.1,8.2,12.3,14.4,21.4,18.4c8.2,3.6,17.9,5.4,29.1,5.4c9.3,0,16.7-1.2,22.6-3.7
			c8.7-3.7,14.4-10.3,16.1-18.8c4.1-18.5,17.7-51.5,40.3-97.9c0,0,0,0,0-0.1c8.6-17.7,14.9-30.2,19.5-39c13.4,33,29,80.3,46.4,141.3
			c2,7,8.4,11.6,15.4,11.6c1.1,0,2.1-0.1,3.2-0.3c20.4-4.2,35.5-8.3,46.2-12.6c6.3-2.6,11.2-5.2,14.9-8.2c7.9-6.4,9.6-13.4,9.6-18.3
			v-0.6c0-2.1-0.4-4.3-1.3-6.2c1.4-6.9,8.7-30.1,43.3-106.5c10.8-23.7,19.8-43.8,27-59.9c10.1-22.7,17.5-39.3,23-50
			c2.6,1.3,5.2,2.6,7.5,3.8c19.6,10,24.8,12.3,30.5,12.3c5.5,0,10.4-2.5,13.5-6.8c3.1-4.3,3.9-9.8,2.2-14.8
			c-8.1-24-27-112.2-27.2-113.1c-1-4.7-4.1-8.8-8.5-10.9C499.8,82.7,497.4,82.2,494.9,82.2L494.9,82.2z"/>
	</g>
</g>
</svg>
